<?xml version="1.0" encoding="UTF-8" standalone="no"?>
<!DOCTYPE svg PUBLIC "-//W3C//DTD SVG 1.1//EN" "http://www.w3.org/Graphics/SVG/1.1/DTD/svg11.dtd">
<svg width="100%" height="100%" viewBox="0 0 556 191" version="1.1" xmlns="http://www.w3.org/2000/svg" xmlns:xlink="http://www.w3.org/1999/xlink" xml:space="preserve" xmlns:serif="http://www.serif.com/" style="fill-rule:evenodd;clip-rule:evenodd;stroke-linejoin:round;stroke-miterlimit:2;">
    <g transform="matrix(1,0,0,1,145.395,23.079)">
        <g id="Desktop-Design" serif:id="Desktop Design">
            <path d="M0,144.765C24.757,144.765 39.443,126.302 42.59,97.349L53.5,129.239C53.92,130.079 54.13,130.708 54.13,131.757C54.13,133.016 53.92,134.275 52.871,135.534C51.612,137.212 48.885,138.681 45.947,138.681L39.024,138.89C38.604,139.939 38.394,140.989 38.394,141.828C38.394,142.667 38.604,143.296 39.024,144.345L39.024,144.555C55.808,144.555 66.298,143.506 87.908,143.506C107.42,143.506 116.652,144.345 133.856,144.345C134.275,143.296 134.485,142.247 134.485,141.408C134.485,140.569 134.275,139.73 133.856,138.681C125.254,138.681 120.218,136.163 120.218,125.043L117.281,20.98C116.861,20.351 116.442,19.931 115.603,19.511C109.728,24.337 106.161,27.274 101.336,32.1L101.336,32.31C101.336,63.57 102.175,114.763 102.175,125.883C102.175,138.89 100.287,139.1 89.797,139.1C85.6,139.1 76.369,139.1 70.914,125.883C65.879,113.924 43.849,43.429 32.73,18.882C31.681,18.253 29.792,18.253 28.324,19.302C28.324,39.023 5.035,67.137 -11.539,77.837C-10.91,80.565 -9.651,81.614 -7.763,82.033C9.861,69.865 24.337,47.835 24.967,46.576L27.484,53.71C24.337,68.816 19.722,75.529 6.294,86.649C-8.602,97.769 -25.806,110.567 -25.806,126.092C-25.806,131.128 -23.918,135.324 -19.931,138.681C-14.896,142.877 -7.973,144.765 0,144.765M-86.44,144.765C-64.2,144.765 -43.22,135.534 -37.345,129.659L-36.926,112.245C-38.394,111.406 -39.234,110.986 -40.912,110.986C-54.759,129.869 -67.138,138.261 -84.551,138.261C-93.993,138.261 -100.497,135.114 -105.742,130.708C-117.701,120.637 -122.946,102.384 -122.946,82.663C-122.946,48.465 -104.063,25.806 -75.11,25.806C-59.165,25.806 -53.29,33.359 -53.29,45.317C-53.29,52.87 -55.598,59.374 -60.843,67.976C-60.843,69.865 -60.424,70.494 -58.326,71.753L-56.647,69.865C-48.255,60.423 -39.234,47.625 -36.086,43.429C-34.198,40.912 -34.828,38.604 -37.345,36.715C-51.822,23.708 -66.928,18.253 -83.712,18.253C-123.156,18.253 -145.395,51.192 -145.395,82.663C-145.395,113.294 -127.771,144.765 -86.44,144.765M9.651,133.855C-1.469,133.855 -5.035,123.155 -5.035,114.763C-5.035,107 -0.21,99.867 10.071,91.055C22.659,80.984 27.275,73.641 30.422,62.312L37.975,84.131C36.296,104.692 28.114,133.855 9.651,133.855M239.04,144.765C243.866,144.765 250.16,142.667 252.887,139.939C253.727,139.1 255.615,137.002 252.258,135.324C245.964,132.177 240.719,128.61 235.683,120.847C231.697,114.763 220.997,98.398 203.583,87.488C200.646,85.81 194.352,82.243 188.058,77.208C188.058,76.788 188.058,76.788 188.267,76.788C200.017,83.082 210.926,86.229 218.689,86.229C234.844,86.229 244.285,76.159 244.285,57.067C244.285,40.282 236.942,23.708 218.899,19.931C216.171,19.302 213.654,19.092 210.926,19.092C196.869,19.092 184.071,24.966 172.112,24.966C168.336,24.966 161.622,24.337 159.734,23.917L152.391,22.449C151.342,22.449 146.936,22.868 146.936,26.225C146.936,26.435 146.936,26.855 147.146,27.274C147.565,27.694 149.034,27.694 149.663,27.694C154.699,27.904 157.216,28.533 157.216,32.31C157.216,46.996 158.056,112.245 158.475,125.883C158.685,132.806 155.748,138.681 149.244,138.681L142.32,138.681C140.852,139.73 141.061,143.506 141.901,144.345C153.23,144.555 157.216,143.506 168.546,143.506C177.567,143.506 182.603,144.555 189.526,144.555C189.946,143.296 190.156,142.247 190.156,141.408C190.156,140.359 189.946,139.73 189.526,138.681C181.554,138.681 176.099,136.163 176.099,125.253C176.099,101.126 173.581,55.178 173.581,31.261C175.469,30.631 192.673,26.855 201.485,26.855C216.591,26.855 223.515,37.974 223.515,55.808C222.466,66.298 220.158,80.145 209.877,80.145C202.954,80.145 191.205,73.851 185.54,70.494C183.232,69.865 181.344,72.172 181.344,74.69C181.344,75.739 181.764,76.998 182.603,77.837C195.611,91.265 204.632,103.433 211.556,116.651C217.011,126.932 224.774,144.765 239.04,144.765M108.05,1.678C116.652,1.678 121.057,-5.455 121.057,-10.91C121.057,-16.575 117.491,-23.079 110.567,-23.079C104.063,-23.079 96.93,-17.414 96.93,-9.022C96.93,-1.469 102.175,1.678 108.05,1.678M260.86,167.844C282.47,167.844 285.617,148.751 285.617,125.043C285.617,103.433 283.519,49.094 283.519,20.98C282.889,20.351 282.05,19.931 281.211,19.511C276.805,23.078 272.399,27.064 267.154,32.1L267.154,32.31C267.154,63.361 268.203,128.4 268.203,135.534C268.203,143.926 267.364,162.179 254.356,162.179C254.146,163.018 253.936,163.857 253.936,164.487C253.936,165.326 254.146,166.375 254.566,167.214C256.034,167.634 257.713,167.844 260.86,167.844M295.478,144.345C304.08,144.345 312.472,143.506 321.703,143.506C331.145,143.506 333.033,144.555 342.894,144.345C343.313,143.296 343.523,142.247 343.523,141.408C343.523,140.569 343.313,139.73 342.894,138.89L342.894,138.681L342.474,138.681C334.501,138.681 329.466,137.002 329.466,125.253C329.466,119.379 328.207,79.725 327.578,57.486C335.341,46.996 353.174,33.359 364.084,33.359C370.588,33.359 369.958,29.582 370.798,43.849C372.057,61.892 372.476,91.684 372.476,111.616L372.476,125.253C372.476,136.163 367.021,138.681 359.258,138.681L359.049,138.89C358.629,139.73 358.419,140.359 358.419,141.198C358.419,142.038 358.629,143.087 359.049,144.345C368.7,144.555 372.266,143.506 380.029,143.506C392.617,143.506 397.023,144.555 409.612,144.345C410.031,143.296 410.241,142.457 410.241,141.618C410.241,140.779 410.031,139.939 409.612,138.89L409.402,138.681L406.255,138.681C398.282,138.681 391.778,134.275 390.31,128.19C389.051,122.945 389.68,73.641 387.792,49.304C387.163,39.233 387.163,20.98 375.623,20.98C369.749,20.98 349.817,25.806 327.368,50.772L326.948,20.98C326.739,20.351 325.899,19.931 324.431,19.931C321.284,22.449 313.311,29.162 310.794,32.1L310.794,32.31C310.794,63.57 312.052,114.553 311.633,125.883C311.213,138.471 308.486,138.681 302.611,138.681L295.478,138.681C295.058,139.939 294.848,140.779 294.848,141.618C294.848,142.457 295.058,143.087 295.478,144.345M274.078,1.678C282.68,1.678 287.086,-5.455 287.086,-10.91C287.086,-16.575 283.519,-23.079 276.595,-23.079C270.091,-23.079 262.958,-17.414 262.958,-9.022C262.958,-1.469 268.203,1.678 274.078,1.678" style="fill-rule:nonzero;"/>
        </g>
    </g>
</svg>
