<?xml version="1.0" encoding="UTF-8" standalone="no"?>
<!DOCTYPE svg PUBLIC "-//W3C//DTD SVG 1.1//EN" "http://www.w3.org/Graphics/SVG/1.1/DTD/svg11.dtd">
<svg width="100%" height="100%" viewBox="0 0 53 53" version="1.1" xmlns="http://www.w3.org/2000/svg" xmlns:xlink="http://www.w3.org/1999/xlink" xml:space="preserve" xmlns:serif="http://www.serif.com/" style="fill-rule:evenodd;clip-rule:evenodd;stroke-linejoin:round;stroke-miterlimit:2;">
    <g transform="matrix(1,0,0,1,26.168,0.441)">
        <g id="Desktop-Design" serif:id="Desktop Design">
            <path d="M0,51.696C-0.441,52.137 -4.309,51.917 -5.171,51.738C-17.162,49.258 -26.168,38.643 -26.168,25.916C-26.168,11.361 -14.366,-0.441 0.2,-0.441C14.766,-0.441 26.568,11.361 26.568,25.916C26.568,36.899 19.863,46.315 10.31,50.277C9.437,50.645 7.935,50.992 7.02,50.477C6.484,50.162 6.873,42.248 6.873,42.248L6.873,33.409C6.873,33.409 6.821,32.948 7.199,32.727C7.493,32.559 7.85,32.569 7.85,32.569L11.361,32.569C11.361,32.569 11.834,32.569 11.981,32.485C12.222,32.348 12.243,31.939 12.243,31.939L13.053,26.863C13.053,26.863 13.147,26.389 13.031,26.273C12.916,26.169 12.359,26.201 12.359,26.201L7.588,26.201C7.588,26.201 7.441,26.263 7.136,26.032C6.873,25.832 6.873,25.601 6.873,25.601L6.873,24.246C6.873,22.994 7.714,21.986 8.891,21.986L11.634,21.986C11.634,21.986 12.727,21.965 13,21.723C13.284,21.471 13.294,20.515 13.294,20.515L13.294,16.721C13.294,16.721 13.336,15.89 13.084,15.68C12.832,15.481 11.77,15.491 11.77,15.491L8.124,15.491L8.124,15.513C1.86,15.733 0.568,19.264 0.462,22.964L0.441,22.964L0.441,25.748C0.441,25.748 0.441,26 0.294,26.116C0.179,26.211 -0.084,26.201 -0.084,26.201L-3.037,26.201C-3.037,26.201 -3.3,26.169 -3.594,26.4C-3.867,26.61 -3.826,26.893 -3.826,26.893L-3.826,31.833C-3.826,31.833 -3.815,32.222 -3.678,32.39C-3.489,32.611 -3.006,32.569 -3.006,32.569L-0.851,32.569C-0.851,32.569 -0.2,32.548 0.126,32.842C0.431,33.126 0.441,33.809 0.441,33.809L0.441,43.183C0.441,43.183 0.767,50.94 0,51.696" style="fill-rule:nonzero;"/>
        </g>
    </g>
</svg>
