<?xml version="1.0" encoding="UTF-8" standalone="no"?>
<!DOCTYPE svg PUBLIC "-//W3C//DTD SVG 1.1//EN" "http://www.w3.org/Graphics/SVG/1.1/DTD/svg11.dtd">
<svg width="100%" height="100%" viewBox="0 0 53 53" version="1.1" xmlns="http://www.w3.org/2000/svg" xmlns:xlink="http://www.w3.org/1999/xlink" xml:space="preserve" xmlns:serif="http://www.serif.com/" style="fill-rule:evenodd;clip-rule:evenodd;stroke-linejoin:round;stroke-miterlimit:2;">
    <g transform="matrix(1,0,0,1,26.171,33.983)">
        <g id="Desktop-Design" serif:id="Desktop Design">
            <path d="M0,-15.632C4.313,-15.632 7.816,-12.122 7.816,-7.81C7.816,-3.496 4.313,-0.001 0,-0.001C-4.314,-0.001 -7.816,-3.496 -7.816,-7.81C-7.816,-12.122 -4.314,-15.632 0,-15.632M0,-20.565C-7.036,-20.565 -12.749,-14.857 -12.749,-7.81C-12.749,-0.776 -7.036,4.932 0,4.932C7.036,4.932 12.749,-0.776 12.749,-7.81C12.749,-14.857 7.036,-20.565 0,-20.565M21.238,-15.942L21.238,0.324C21.238,7.554 15.366,13.418 8.133,13.418L-8.133,13.418C-15.366,13.418 -21.238,7.554 -21.238,0.324L-21.238,-15.942C-21.238,-23.187 -15.366,-29.05 -8.133,-29.05L8.133,-29.05C15.366,-29.05 21.238,-23.187 21.238,-15.942M26.171,-15.942C26.171,-25.907 18.088,-33.983 8.133,-33.983L-8.133,-33.983C-18.089,-33.983 -26.171,-25.907 -26.171,-15.942L-26.171,0.324C-26.171,10.274 -18.089,18.351 -8.133,18.351L8.133,18.351C18.088,18.351 26.171,10.274 26.171,0.324L26.171,-15.942Z"/>
        </g>
    </g>
</svg>
