<?xml version="1.0" encoding="UTF-8" standalone="no"?>
<!DOCTYPE svg PUBLIC "-//W3C//DTD SVG 1.1//EN" "http://www.w3.org/Graphics/SVG/1.1/DTD/svg11.dtd">
<svg width="100%" height="100%" viewBox="0 0 64 53" version="1.1" xmlns="http://www.w3.org/2000/svg" xmlns:xlink="http://www.w3.org/1999/xlink" xml:space="preserve" xmlns:serif="http://www.serif.com/" style="fill-rule:evenodd;clip-rule:evenodd;stroke-linejoin:round;stroke-miterlimit:2;">
    <g transform="matrix(1,0,0,1,62.4374,46.636)">
        <g id="Desktop-Design" serif:id="Desktop Design">
            <path d="M0,-40.497C-1.41,-39.872 -2.873,-39.379 -4.375,-39.022C-2.72,-40.594 -1.476,-42.561 -0.774,-44.756C-0.574,-45.382 -1.255,-45.924 -1.82,-45.589C-3.909,-44.35 -6.159,-43.42 -8.508,-42.826C-8.645,-42.791 -8.785,-42.774 -8.926,-42.774C-9.354,-42.774 -9.77,-42.932 -10.097,-43.221C-12.596,-45.423 -15.811,-46.636 -19.148,-46.636C-20.592,-46.636 -22.05,-46.411 -23.481,-45.967C-27.917,-44.592 -31.339,-40.933 -32.412,-36.419C-32.815,-34.726 -32.924,-33.032 -32.737,-31.383C-32.715,-31.193 -32.805,-31.061 -32.86,-30.999C-32.957,-30.89 -33.095,-30.828 -33.237,-30.828C-33.253,-30.828 -33.27,-30.829 -33.286,-30.83C-42.995,-31.732 -51.749,-36.409 -57.938,-44C-58.253,-44.388 -58.858,-44.34 -59.11,-43.909C-60.322,-41.83 -60.962,-39.452 -60.962,-37.032C-60.962,-33.324 -59.472,-29.829 -56.885,-27.282C-57.973,-27.54 -59.026,-27.946 -60.005,-28.49C-60.478,-28.753 -61.06,-28.415 -61.067,-27.873C-61.135,-22.364 -57.909,-17.463 -53.078,-15.255C-53.175,-15.253 -53.272,-15.252 -53.37,-15.252C-54.136,-15.252 -54.911,-15.326 -55.675,-15.472C-56.208,-15.573 -56.655,-15.068 -56.49,-14.551C-54.922,-9.655 -50.706,-6.046 -45.661,-5.227C-49.848,-2.416 -54.724,-0.934 -59.798,-0.934L-61.38,-0.934C-61.868,-0.934 -62.28,-0.617 -62.404,-0.145C-62.527,0.32 -62.301,0.811 -61.886,1.053C-56.167,4.381 -49.645,6.139 -43.02,6.139C-37.222,6.139 -31.798,4.989 -26.899,2.719C-22.408,0.639 -18.439,-2.335 -15.103,-6.12C-11.995,-9.645 -9.565,-13.715 -7.88,-18.217C-6.274,-22.507 -5.425,-27.085 -5.425,-31.456L-5.425,-31.665C-5.425,-32.366 -5.108,-33.027 -4.554,-33.476C-2.453,-35.182 -0.623,-37.191 0.885,-39.446C1.283,-40.041 0.655,-40.787 0,-40.497" style="fill-rule:nonzero;"/>
        </g>
    </g>
</svg>
